<svg width="27" height="26" viewBox="0 0 27 26" fill="none" xmlns="http://www.w3.org/2000/svg">
<path d="M19.4138 26C19.1739 26 18.9363 25.9243 18.7438 25.7686L11.7301 20.1002H2.52657C1.1412 20.1002 0 18.9553 0 17.5598V2.49793C0 1.10863 1.1412 0 2.52657 0H24.4654C25.8656 0 27 1.10865 27 2.49793V17.5599C27 18.9554 25.8656 20.1002 24.4654 20.1002H20.4574V24.9633C20.4574 25.3644 20.2274 25.7294 19.8586 25.9007C19.7151 25.9673 19.5666 26 19.4138 26ZM2.52657 2.07121C2.30392 2.07121 2.12234 2.25197 2.12234 2.49793V17.5598C2.12234 17.8078 2.30769 18.029 2.52657 18.029H12.108C12.3524 18.029 12.585 18.1066 12.7737 18.2592L18.3511 22.768V19.054C18.3511 18.4814 18.8313 18.029 19.4136 18.029H24.4654C24.6908 18.029 24.8936 17.7993 24.8936 17.5599V2.49793C24.8936 2.26027 24.6948 2.07121 24.4654 2.07121H2.52657Z" fill="#1F2937"/>
</svg>
