<svg width="26" height="26" viewBox="0 0 26 26" fill="none" xmlns="http://www.w3.org/2000/svg">
<path d="M12.9998 2.50879C10.9249 2.50879 8.89654 3.12408 7.17131 4.27684C5.44607 5.42961 4.10141 7.06808 3.30737 8.98506C2.51333 10.902 2.30558 13.0114 2.71038 15.0465C3.11517 17.0815 4.11434 18.9509 5.58154 20.418C7.04873 21.8852 8.91805 22.8844 10.9531 23.2892C12.9882 23.694 15.0975 23.4862 17.0145 22.6922C18.9315 21.8982 20.57 20.5535 21.7227 18.8283C22.8755 17.103 23.4908 15.0747 23.4908 12.9998C23.488 10.2182 22.3819 7.55142 20.415 5.58457C18.4482 3.61773 15.7813 2.51154 12.9998 2.50879ZM12.9998 20.8908C11.4391 20.8908 9.91346 20.428 8.61579 19.5609C7.31812 18.6938 6.30671 17.4614 5.70946 16.0195C5.11221 14.5777 4.95594 12.991 5.26042 11.4603C5.56489 9.92963 6.31644 8.52359 7.42001 7.42001C8.52359 6.31643 9.92963 5.56489 11.4603 5.26041C12.991 4.95594 14.5777 5.1122 16.0195 5.70946C17.4614 6.30671 18.6938 7.31812 19.5609 8.61578C20.428 9.91345 20.8908 11.4391 20.8908 12.9998C20.888 15.0918 20.0558 17.0973 18.5765 18.5765C17.0973 20.0558 15.0918 20.888 12.9998 20.8908Z" fill="#9CA3AF"/>
<path d="M10.1346 11.6559C10.9244 11.6559 11.5646 11.0157 11.5646 10.2259C11.5646 9.43613 10.9244 8.7959 10.1346 8.7959C9.34482 8.7959 8.70459 9.43613 8.70459 10.2259C8.70459 11.0157 9.34482 11.6559 10.1346 11.6559Z" fill="#9CA3AF"/>
<path d="M15.8651 11.6559C16.6548 11.6559 17.2951 11.0157 17.2951 10.2259C17.2951 9.43613 16.6548 8.7959 15.8651 8.7959C15.0753 8.7959 14.4351 9.43613 14.4351 10.2259C14.4351 11.0157 15.0753 11.6559 15.8651 11.6559Z" fill="#9CA3AF"/>
<path d="M16.9908 14.4746C16.9908 14.9987 16.8876 15.5177 16.687 16.0019C16.4864 16.4861 16.1924 16.9261 15.8219 17.2967C15.4513 17.6673 15.0113 17.9612 14.5271 18.1618C14.0429 18.3624 13.5239 18.4656 12.9998 18.4656C12.4757 18.4656 11.9567 18.3624 11.4725 18.1618C10.9883 17.9612 10.5483 17.6673 10.1777 17.2967C9.80713 16.9261 9.51315 16.4861 9.31259 16.0019C9.11202 15.5177 9.00879 14.9987 9.00879 14.4746H16.9908Z" fill="#9CA3AF"/>
</svg>
