<svg width="24" height="24" viewBox="0 0 24 24" fill="none" xmlns="http://www.w3.org/2000/svg">
<g clip-path="url(#clip0_1103_384)">
<path d="M17 1.00005C16.0686 0.998792 15.1464 1.18395 14.2877 1.54461C13.429 1.90526 12.6512 2.43413 12 3.10005C11.0268 2.10673 9.7797 1.42581 8.41789 1.14413C7.05607 0.862449 5.64122 0.992772 4.35378 1.51848C3.06633 2.04418 1.96465 2.94145 1.18923 4.09583C0.413807 5.25022 -0.000202679 6.60941 7.44354e-08 8.00005C7.44354e-08 12.16 2 18.12 11.553 22.9C11.6918 22.9694 11.8448 23.0055 12 23.0055C12.1552 23.0055 12.3082 22.9694 12.447 22.9C22 18.12 24 12.16 24 8.00005C23.9979 6.14418 23.2597 4.36493 21.9474 3.05264C20.6351 1.74034 18.8559 1.00216 17 1.00005ZM12 20.878C5.363 17.447 2 13.116 2 8.00005C2.0005 6.92608 2.34679 5.88082 2.98761 5.01899C3.62842 4.15716 4.5297 3.52456 5.55804 3.21484C6.58637 2.90511 7.6871 2.93473 8.6973 3.29929C9.70749 3.66386 10.5735 4.344 11.167 5.23905C11.2636 5.36895 11.3892 5.47447 11.5338 5.54717C11.6785 5.61987 11.8381 5.65773 12 5.65773C12.1619 5.65773 12.3215 5.61987 12.4662 5.54717C12.6108 5.47447 12.7364 5.36895 12.833 5.23905C13.4265 4.344 14.2925 3.66386 15.3027 3.29929C16.3129 2.93473 17.4136 2.90511 18.442 3.21484C19.4703 3.52456 20.3716 4.15716 21.0124 5.01899C21.6532 5.88082 21.9995 6.92608 22 8.00005C22 13.116 18.637 17.447 12 20.878Z" fill="#1F2937"/>
</g>
<defs>
<clipPath id="clip0_1103_384">
<rect width="24" height="24" fill="white"/>
</clipPath>
</defs>
</svg>
