<svg width="32" height="32" viewBox="0 0 32 32" fill="none" xmlns="http://www.w3.org/2000/svg">
<path d="M26.9999 27H4.9999C4.82944 26.9995 4.66194 26.9554 4.5133 26.8719C4.36467 26.7885 4.23984 26.6684 4.15067 26.5231C4.06149 26.3778 4.01094 26.2122 4.00381 26.0419C3.99667 25.8715 4.03319 25.7022 4.1099 25.55C5.34377 23.0631 5.99037 20.3262 5.9999 17.55V14C5.9999 11.3478 7.05347 8.8043 8.92884 6.92893C10.8042 5.05357 13.3477 4 15.9999 4C18.6521 4 21.1956 5.05357 23.071 6.92893C24.9463 8.8043 25.9999 11.3478 25.9999 14V17.53C26.0094 20.3062 26.656 23.0431 27.8899 25.53C27.9713 25.6829 28.0116 25.8544 28.0069 26.0276C28.0021 26.2008 27.9524 26.3697 27.8627 26.5179C27.773 26.6661 27.6463 26.7885 27.495 26.873C27.3438 26.9575 27.1732 27.0013 26.9999 27ZM6.5499 25H25.4499C24.4963 22.6248 24.0042 20.0895 23.9999 17.53V14C23.9999 11.8783 23.157 9.84344 21.6568 8.34315C20.1565 6.84285 18.1216 6 15.9999 6C13.8782 6 11.8433 6.84285 10.343 8.34315C8.84276 9.84344 7.9999 11.8783 7.9999 14V17.53C7.99563 20.0895 7.50351 22.6248 6.5499 25Z" fill="#1F2937"/>
<path d="M16 31C14.6739 31 13.4021 30.4732 12.4645 29.5355C11.5268 28.5979 11 27.3261 11 26C11 25.7348 11.1054 25.4804 11.2929 25.2929C11.4804 25.1054 11.7348 25 12 25C12.2652 25 12.5196 25.1054 12.7071 25.2929C12.8946 25.4804 13 25.7348 13 26C13.0007 26.7954 13.3172 27.5579 13.88 28.12C14.4523 28.663 15.2111 28.9657 16 28.9657C16.7889 28.9657 17.5477 28.663 18.12 28.12C18.2132 28.0268 18.3239 27.9528 18.4458 27.9023C18.5676 27.8519 18.6981 27.8259 18.83 27.8259C18.9619 27.8259 19.0924 27.8519 19.2142 27.9023C19.3361 27.9528 19.4468 28.0268 19.54 28.12C19.6332 28.2132 19.7072 28.3239 19.7577 28.4458C19.8081 28.5676 19.8341 28.6981 19.8341 28.83C19.8341 28.9619 19.8081 29.0924 19.7577 29.2142C19.7072 29.3361 19.6332 29.4468 19.54 29.54C19.0748 30.004 18.5227 30.3718 17.9153 30.6223C17.3079 30.8728 16.657 31.0012 16 31Z" fill="#1F2937"/>
<path d="M16 6C15.7348 6 15.4804 5.89464 15.2929 5.70711C15.1054 5.51957 15 5.26522 15 5V2C15 1.73478 15.1054 1.48043 15.2929 1.29289C15.4804 1.10536 15.7348 1 16 1C16.2652 1 16.5196 1.10536 16.7071 1.29289C16.8946 1.48043 17 1.73478 17 2V5C17 5.26522 16.8946 5.51957 16.7071 5.70711C16.5196 5.89464 16.2652 6 16 6Z" fill="#1F2937"/>
</svg>
