<svg width="512" height="512" viewBox="0 0 512 512" fill="none" xmlns="http://www.w3.org/2000/svg">
<path fill-rule="evenodd" clip-rule="evenodd" d="M256 32C132.3 32 32 134.8 32 261.7C32 363.2 96.2 449.2 185.2 479.6C196.4 481.7 200.5 474.6 200.5 468.5C200.5 463 200.3 448.6 200.2 429.4C137.9 443.3 124.7 398.6 124.7 398.6C114.5 372.1 99.8 365 99.8 365C79.5 350.7 101.3 351 101.3 351C123.8 352.6 135.6 374.7 135.6 374.7C155.6 409.8 188 399.7 200.8 393.8C202.8 379 208.6 368.8 215 363.1C165.3 357.3 113 337.6 113 249.6C113 224.5 121.7 204 136 188C133.7 182.2 126 158.8 138.2 127.2C138.2 127.2 157 121 199.8 150.7C217.7 145.6 236.8 143.1 255.9 143C274.9 143.1 294.1 145.6 312 150.7C354.8 121 373.5 127.2 373.5 127.2C385.7 158.8 378 182.2 375.7 188C390 204.1 398.7 224.6 398.7 249.6C398.7 337.8 346.3 357.2 296.4 362.9C304.4 370 311.6 384 311.6 405.4C311.6 436.1 311.3 460.9 311.3 468.4C311.3 474.5 315.3 481.7 326.7 479.4C415.9 449.1 480 363.1 480 261.7C480 134.8 379.7 32 256 32Z" fill="#1E293B"/>
</svg>
