<svg width="512" height="512" viewBox="0 0 512 512" fill="none" xmlns="http://www.w3.org/2000/svg">
<path d="M161.014 464.013C354.222 464.013 459.899 303.942 459.899 165.128C459.899 160.582 459.899 156.056 459.592 151.55C480.15 136.679 497.897 118.268 512 97.1758C492.829 105.671 472.49 111.241 451.666 113.703C473.59 100.579 490.009 79.9208 497.848 55.6008C477.229 67.8358 454.668 76.4598 431.145 81.0988C411.283 59.9778 383.543 47.9868 354.552 47.9868C296.87 47.9868 249.407 95.4508 249.407 153.131C249.407 161.133 250.321 169.11 252.129 176.904C167.711 172.673 88.949 132.743 35.635 67.1518C7.911 114.878 22.256 176.728 68.157 207.378C51.442 206.883 35.086 202.373 20.48 194.23V195.561C20.494 245.375 55.927 288.672 104.755 298.535C89.291 302.752 73.062 303.368 57.324 300.337C71.051 343.022 110.635 372.445 155.464 373.287C118.274 402.514 72.307 418.39 25.006 418.343C16.648 418.327 8.298 417.821 0 416.827C48.034 447.652 103.94 464.007 161.014 463.931" fill="white"/>
</svg>
